<?xml version="1.0" encoding="utf-8"?>
<!-- Generator: Adobe Illustrator 27.8.1, SVG Export Plug-In . SVG Version: 6.00 Build 0)  -->
<svg version="1.1" id="Layer_1" xmlns="http://www.w3.org/2000/svg" xmlns:xlink="http://www.w3.org/1999/xlink" x="0px" y="0px"
	 viewBox="0 0 150 41.7" style="enable-background:new 0 0 150 41.7;" xml:space="preserve">
<style type="text/css">
	.st0{fill:#3499CC;}
	.st1{fill:#1F486A;}
	.st2{fill:#66788A;}
	.st3{fill-rule:evenodd;clip-rule:evenodd;fill:#66788A;}
</style>
<path class="st0" d="M2.7,0.1v12h0.1c0.3-0.7,0.7-1.4,1.2-2c0.6-0.6,1.1-1,1.8-1.4C6.5,8.3,7.2,8,8,7.8c0.8-0.2,1.6-0.3,2.4-0.3
	c1.7,0,3.2,0.3,4.4,0.9c1.3,0.6,2.3,1.4,3.1,2.4c0.9,1,1.4,2.2,1.8,3.6c0.4,1.3,0.6,2.8,0.6,4.3c0,1.5-0.2,2.9-0.6,4.3
	c-0.4,1.3-1,2.5-1.8,3.6c-0.8,1-1.9,1.8-3.1,2.4c-1.3,0.6-2.7,0.9-4.4,0.9s-3.4-0.4-4.8-1.2c-1.4-0.8-2.4-1.9-3.1-3.4h0.1V29H0V0.1
	H2.7z M17.3,15.4c-0.2-1.1-0.7-2.1-1.3-2.8c-0.6-0.9-1.3-1.5-2.3-2.1c-0.9-0.6-2.1-0.8-3.3-0.8c-1.4,0-2.6,0.2-3.6,0.8
	c-1,0.6-1.8,1.2-2.4,2.1c-0.6,0.9-1,1.8-1.3,2.8c-0.2,1.1-0.4,2.1-0.4,3.2c0,1.1,0.2,2.1,0.4,3.2c0.2,1.1,0.7,2.1,1.3,2.8
	c0.6,0.9,1.4,1.5,2.4,2.1c1,0.6,2.2,0.8,3.6,0.8c1.3,0,2.4-0.2,3.3-0.8c0.9-0.6,1.7-1.2,2.3-2.1c0.6-0.9,1-1.8,1.3-2.8
	c0.2-1.1,0.4-2.1,0.4-3.2C17.8,17.5,17.6,16.4,17.3,15.4z M27.2,0.1v3.5h-2.7V0.1C24.5,0.1,27.2,0.1,27.2,0.1z M27.2,7.6V29h-2.7
	V7.6L27.2,7.6L27.2,7.6z"/>
<path class="st1" d="M47.1,0.1c1.4,0,2.8,0.2,4,0.4c1.2,0.2,2.2,0.6,3.1,1.2c0.9,0.6,1.5,1.3,2,2.2c0.5,0.9,0.7,2.1,0.7,3.4
	c0,1.4-0.3,2.7-1,3.6c-0.7,0.9-1.7,1.7-3.1,2.4c1.9,0.6,3.3,1.4,4.3,2.7c0.9,1.3,1.4,2.8,1.4,4.7c0,1.4-0.3,2.8-0.9,3.8
	c-0.6,1.1-1.4,2-2.4,2.6c-1,0.7-2.2,1.2-3.5,1.5c-1.3,0.3-2.6,0.5-4,0.5H32.7V0.1L47.1,0.1L47.1,0.1z M46.3,11.8
	c1.2,0,2.2-0.2,3-0.8c0.8-0.6,1.2-1.4,1.2-2.6c0-0.7-0.2-1.3-0.4-1.7c-0.2-0.4-0.6-0.8-1-1c-0.4-0.2-0.9-0.4-1.5-0.5
	c-0.6-0.1-1.1-0.2-1.7-0.2h-6.3v6.7L46.3,11.8L46.3,11.8L46.3,11.8z M46.6,24.2c0.6,0,1.3-0.1,1.9-0.2c0.6-0.2,1.1-0.3,1.6-0.6
	c0.5-0.3,0.8-0.6,1.1-1.2c0.2-0.5,0.4-1.1,0.4-1.9c0-1.5-0.5-2.5-1.3-3.2c-0.9-0.6-2.1-0.9-3.6-0.9h-7.3v8L46.6,24.2L46.6,24.2z
	 M62.8,0.1V29h23.2v-5.3H69.6v-7.1h14.8v-4.9H69.6V5.4h16.2V0.1L62.8,0.1L62.8,0.1z M107.4,0.1c1.3,0,2.6,0.2,3.7,0.6s2.1,1,2.8,1.7
	c0.8,0.7,1.4,1.6,1.8,2.5c0.4,0.9,0.6,2,0.6,3.1c0,1.7-0.4,3.1-1.1,4.4c-0.8,1.3-2,2.2-3.7,2.8v0.1c0.9,0.2,1.5,0.6,2.1,1
	c0.6,0.5,1,0.9,1.3,1.6c0.3,0.6,0.6,1.3,0.8,2c0.2,0.7,0.2,1.4,0.3,2.2c0,0.5,0.1,1,0.1,1.7c0,0.6,0.1,1.3,0.2,1.9
	c0.1,0.6,0.2,1.3,0.3,1.8c0.2,0.6,0.4,1.1,0.7,1.5h-6.7c-0.4-0.9-0.6-2-0.7-3.3c-0.1-1.3-0.2-2.5-0.4-3.6c-0.2-1.5-0.7-2.6-1.4-3.3
	c-0.7-0.7-2-1-3.6-1h-6.7V29H91V0.1H107.4L107.4,0.1z M104.9,13.1c1.6,0,2.7-0.3,3.5-0.9c0.8-0.6,1.2-1.7,1.2-3.1
	c0-1.4-0.4-2.4-1.2-3.1c-0.8-0.6-1.9-0.9-3.5-0.9h-7.4v8.1H104.9z M121.7,0.1V29h6.7v-9.3l3.9-3.7l9.2,13h8.4l-13.1-17.5l12-11.4
	h-8.4l-12,12v-12L121.7,0.1L121.7,0.1z"/>
<path class="st2" d="M9.6,41.5v-6.4h2.3c1,0,1.8,0.3,1.8,1.7c0,0.7-0.4,1.3-1.1,1.4v0c0.9,0.1,1.2,0.7,1.2,1.6
	c0,1.6-1.4,1.7-1.9,1.7H9.6z M10.9,37.7h0.9c0.3,0,0.7-0.2,0.7-0.8c0-0.5-0.3-0.8-0.7-0.8h-0.8L10.9,37.7L10.9,37.7z M10.9,40.5h0.7
	c0.3,0,0.9,0,0.9-0.9c0-0.6-0.2-0.9-0.9-0.9h-0.8L10.9,40.5C10.9,40.5,10.9,40.5,10.9,40.5z M15.5,41.5v-6.4h3.4v1h-2.1v1.6h1.9v1
	h-1.9v1.9h2.1v1L15.5,41.5L15.5,41.5L15.5,41.5z M21.7,41.5h-1.3v-6.4h2.4c0.9,0,1.5,0.6,1.5,1.7c0,0.8-0.3,1.4-1.2,1.6v0
	c0.3,0,1.1,0.1,1.1,1.3c0,0.4,0,1.6,0.1,1.9h-1.3c-0.2-0.4-0.1-0.8-0.1-1.2c0-0.8,0.1-1.4-0.9-1.4h-0.3
	C21.7,38.9,21.7,41.5,21.7,41.5z M21.7,37.9h0.6c0.5,0,0.7-0.5,0.7-0.9c0-0.6-0.2-0.8-0.7-0.8h-0.6V37.9L21.7,37.9z M28.7,35.1h1.4
	L28.4,38l1.7,3.5h-1.5l-1.5-3.3h0v3.3h-1.3v-6.4h1.3v2.7h0L28.7,35.1L28.7,35.1L28.7,35.1z M32.8,41.6c-1.6,0-1.9-1-1.8-2.1h1.3
	c0,0.6,0,1.1,0.7,1.1c0.4,0,0.7-0.3,0.7-0.7c0-1.1-2.6-1.2-2.6-3.1c0-1,0.5-1.8,2-1.8c1.3,0,1.9,0.6,1.8,1.9h-1.3c0-0.5-0.1-1-0.6-1
	c-0.4,0-0.7,0.2-0.7,0.7c0,1.2,2.6,1.1,2.6,3.1C35,41.4,33.8,41.6,32.8,41.6L32.8,41.6z M39.2,37.7v-2.6h1.3v6.4h-1.3v-2.8h-1.5v2.8
	h-1.3v-6.4h1.3v2.6H39.2L39.2,37.7z M42.3,41.5v-6.4h1.3v6.4H42.3z M46.6,41.5h-1.3v-6.4h2.4c0.9,0,1.5,0.6,1.5,1.7
	c0,0.8-0.3,1.4-1.2,1.6v0c0.3,0,1.1,0.1,1.1,1.3c0,0.4,0,1.6,0.1,1.9H48c-0.2-0.4-0.1-0.8-0.1-1.2c0-0.8,0.1-1.4-0.9-1.4h-0.3
	C46.6,38.9,46.6,41.5,46.6,41.5z M46.6,37.9h0.6c0.5,0,0.7-0.5,0.7-0.9c0-0.6-0.2-0.8-0.7-0.8h-0.6V37.9z M50.8,41.5v-6.4h3.4v1
	h-2.1v1.6H54v1h-1.9v1.9h2.1v1L50.8,41.5L50.8,41.5L50.8,41.5z M62.7,37.7v-2.6H64v6.4h-1.3v-2.8h-1.5v2.8H60v-6.4h1.3v2.6H62.7z
	 M65.3,41.5l1.7-6.4h1.7l1.7,6.4h-1.4l-0.3-1.4H67l-0.4,1.4H65.3z M67.8,36.4L67.8,36.4l-0.6,2.8h1.2L67.8,36.4L67.8,36.4z
	 M74.8,35.1v1.1h-1.4v5.3h-1.3v-5.3h-1.4v-1.1L74.8,35.1L74.8,35.1L74.8,35.1z M78.9,37.7v-2.6h1.3v6.4h-1.3v-2.8h-1.5v2.8h-1.3
	v-6.4h1.3v2.6C77.4,37.7,78.9,37.7,78.9,37.7z M81.4,41.5l1.7-6.4h1.7l1.7,6.4h-1.4l-0.3-1.4H83l-0.4,1.4H81.4L81.4,41.5z
	 M83.9,36.4L83.9,36.4l-0.6,2.8h1.2L83.9,36.4L83.9,36.4L83.9,36.4z M87.1,35.1h1.3l0.8,4.5h0l1-4.5h1.5l0.9,4.5h0l0.8-4.5h1.3
	l-1.4,6.4h-1.4l-1-4.7h0l-1.1,4.7h-1.4L87.1,35.1L87.1,35.1z M95.1,41.5l1.7-6.4h1.7l1.7,6.4h-1.4l-0.3-1.4h-1.8l-0.4,1.4H95.1z
	 M97.6,36.4L97.6,36.4L97,39.1h1.2L97.6,36.4L97.6,36.4z M102.2,39.3l-1.6-4.2h1.4l0.9,2.7l1-2.7h1.3l-1.7,4.2v2.2h-1.3V39.3
	L102.2,39.3z M109.8,38.3c0-1.7,0-3.3,2.1-3.3c1.3,0,1.8,0.8,1.8,2.1h-1.3c0-0.8-0.1-1.2-0.5-1.2c-0.7,0-0.8,0.7-0.8,2.3
	c0,1.6,0.1,2.3,0.8,2.3c0.6,0,0.6-0.8,0.6-1.3h1.3c0,1.7-0.7,2.3-1.9,2.3C109.8,41.6,109.8,40,109.8,38.3L109.8,38.3L109.8,38.3z
	 M115.2,38.3c0-1.7,0-3.3,2.1-3.3c2.1,0,2.1,1.6,2.1,3.3s0,3.3-2.1,3.3C115.2,41.6,115.2,40,115.2,38.3z M118.2,38.3
	c0-1.6-0.1-2.3-0.8-2.3c-0.7,0-0.8,0.7-0.8,2.3s0.1,2.3,0.8,2.3C118.1,40.7,118.2,40,118.2,38.3z M121.1,41.5v-6.4h2.1l1,4.3h0
	l1-4.3h2v6.4H126v-4.9h0l-1.2,4.9h-1.2l-1.1-4.9h0v4.9L121.1,41.5L121.1,41.5z M129.2,35.2h2.3c1.2,0,1.6,0.7,1.6,1.9
	c0,0.7-0.2,1.9-1.7,1.9h-1v2.6h-1.3C129.2,41.5,129.2,35.2,129.2,35.2z M130.5,38h0.7c0.4,0,0.7-0.4,0.7-0.9c0-0.5-0.1-1-0.7-1h-0.7
	L130.5,38L130.5,38z M133.4,41.5l1.7-6.4h1.7l1.7,6.4h-1.4l-0.3-1.4H135l-0.4,1.4H133.4z M135.9,36.4L135.9,36.4l-0.6,2.8h1.2
	L135.9,36.4L135.9,36.4z M139.6,41.5v-6.4h1.8l1.6,4.4h0v-4.4h1.2v6.4h-1.7l-1.7-4.7h0v4.7L139.6,41.5L139.6,41.5z M146.9,39.3
	l-1.6-4.2h1.4l0.9,2.7l1-2.7h1.3l-1.7,4.2v2.2h-1.3V39.3L146.9,39.3z"/>
<path class="st3" d="M0,41.5l1.7-6.4h1.7l1.7,6.4H3.8l-0.3-1.4H1.7l-0.4,1.4C1.3,41.5,0,41.5,0,41.5z M2.5,36.4L2.5,36.4l-0.6,2.8
	h1.2L2.5,36.4z"/>
</svg>
